<?xml version="1.0" encoding="UTF-8" standalone="no"?>
<svg
   width="320"
   height="512"
   viewBox="0 0 320 512"
   fill="none"
   version="1.1"
   id="svg11"
   sodipodi:docname="colon_sign_icon.svg"
   inkscape:version="1.2.2 (b0a8486541, 2022-12-01)"
   xmlns:inkscape="http://www.inkscape.org/namespaces/inkscape"
   xmlns:sodipodi="http://sodipodi.sourceforge.net/DTD/sodipodi-0.dtd"
   xmlns="http://www.w3.org/2000/svg"
   xmlns:svg="http://www.w3.org/2000/svg">
  <sodipodi:namedview
     id="namedview13"
     pagecolor="#ffffff"
     bordercolor="#000000"
     borderopacity="0.25"
     inkscape:showpageshadow="2"
     inkscape:pageopacity="0.0"
     inkscape:pagecheckerboard="0"
     inkscape:deskcolor="#d1d1d1"
     showgrid="false"
     inkscape:zoom="1.1103786"
     inkscape:cx="-0.90059371"
     inkscape:cy="253.51713"
     inkscape:window-width="1920"
     inkscape:window-height="991"
     inkscape:window-x="-9"
     inkscape:window-y="-9"
     inkscape:window-maximized="1"
     inkscape:current-layer="svg11" />
  <g
     clip-path="url(#clip0_1_2)"
     id="g4">
    <path
       d="M267.5 355.5C257.586 363.748 246.65 369.7 235.37 374.37L288.08 163.57C297.219 163.531 306.27 160.029 312.56 152.47C323.87 138.91 322.029 118.72 308.435 107.41C306.722 105.984 304.785 105.068 303.039 103.713L319.009 39.813C323.29 22.693 312.868 5.31301 295.729 1.033C278.619 -3.248 261.209 7.127 256.919 24.313L244.839 72.623C235.509 69.658 226.009 67.561 216.439 66.115L223.015 39.815C227.296 22.695 216.874 5.31501 199.735 1.035C182.615 -3.246 165.235 7.12901 160.925 24.315L149.1 68.21C115.2 75.71 82.06 92.97 55.11 120.5C-18.19 195.22 -18.19 316.8 55.0944 391.6C58.7094 395.288 62.8854 397.965 66.7144 401.297L48.9544 472.317C44.6734 489.437 55.0954 506.817 72.2344 511.097C74.84 511.7 77.44 512 80.02 512C94.35 512 107.41 502.312 111.05 487.75L124 435.96C133.16 439.394 142.42 442.521 151.91 444.458L144.963 472.248C140.682 489.368 151.104 506.748 168.243 511.028C170.8 511.7 173.4 512 176 512C190.33 512 203.39 502.312 207.03 487.75L217.51 445.82C249.87 440.752 281.33 427.24 308.45 404.65C322.04 393.34 323.89 373.15 312.575 359.59C301.3 346 281 344.2 267.5 355.5ZM100.8 165.3C109.1 155.9 120.4 148.8 131.3 142.1L85.23 326.4C52.52 277.4 57.68 209.3 100.8 165.3ZM139.6 373.6L200.81 128.7C210.458 129.645 219.99 131.643 229.29 134.915L167.59 381.715C158 380.1 148.6 377.6 139.6 373.6Z"
       fill="#12BEE4"
       id="path2"
       style="fill:#08a599;fill-opacity:1" />
  </g>
  <defs
     id="defs9">
    <clipPath
       id="clip0_1_2">
      <rect
         width="320"
         height="512"
         fill="white"
         id="rect6" />
    </clipPath>
  </defs>
</svg>
