<?xml version="1.0" encoding="UTF-8" standalone="no"?>
<svg
   viewBox="0 0 32 32"
   version="1.1"
   id="svg1161"
   sodipodi:docname="dot_circle_solid_icon.svg"
   inkscape:version="1.2.2 (b0a8486541, 2022-12-01)"
   xmlns:inkscape="http://www.inkscape.org/namespaces/inkscape"
   xmlns:sodipodi="http://sodipodi.sourceforge.net/DTD/sodipodi-0.dtd"
   xmlns="http://www.w3.org/2000/svg"
   xmlns:svg="http://www.w3.org/2000/svg">
  <defs
     id="defs1165" />
  <sodipodi:namedview
     id="namedview1163"
     pagecolor="#ffffff"
     bordercolor="#000000"
     borderopacity="0.25"
     inkscape:showpageshadow="2"
     inkscape:pageopacity="0.0"
     inkscape:pagecheckerboard="0"
     inkscape:deskcolor="#d1d1d1"
     showgrid="false"
     inkscape:zoom="25.125"
     inkscape:cx="12.656716"
     inkscape:cy="16.0199"
     inkscape:window-width="1920"
     inkscape:window-height="991"
     inkscape:window-x="-9"
     inkscape:window-y="-9"
     inkscape:window-maximized="1"
     inkscape:current-layer="svg1161" />
  <path
     d="M 16 4 C 9.382813 4 4 9.382813 4 16 C 4 22.617188 9.382813 28 16 28 C 22.617188 28 28 22.617188 28 16 C 28 9.382813 22.617188 4 16 4 Z M 16 6 C 21.535156 6 26 10.464844 26 16 C 26 21.535156 21.535156 26 16 26 C 10.464844 26 6 21.535156 6 16 C 6 10.464844 10.464844 6 16 6 Z M 16 13 C 14.34375 13 13 14.34375 13 16 C 13 17.65625 14.34375 19 16 19 C 17.65625 19 19 17.65625 19 16 C 19 14.34375 17.65625 13 16 13 Z"
     id="path1159"
     style="fill:#08a599;fill-opacity:1" />
</svg>
