<?xml version="1.0" encoding="UTF-8" standalone="no"?>
<!-- Created with Inkscape (http://www.inkscape.org/) -->

<svg
   width="8.4666672mm"
   height="8.4666595mm"
   viewBox="0 0 8.4666672 8.4666595"
   version="1.1"
   id="svg5"
   xml:space="preserve"
   inkscape:export-filename="news.svg"
   inkscape:export-xdpi="96"
   inkscape:export-ydpi="96"
   sodipodi:docname="news.svg"
   inkscape:version="1.2.2 (b0a8486541, 2022-12-01)"
   xmlns:inkscape="http://www.inkscape.org/namespaces/inkscape"
   xmlns:sodipodi="http://sodipodi.sourceforge.net/DTD/sodipodi-0.dtd"
   xmlns="http://www.w3.org/2000/svg"
   xmlns:svg="http://www.w3.org/2000/svg"><sodipodi:namedview
     id="namedview7"
     pagecolor="#ffffff"
     bordercolor="#000000"
     borderopacity="0.25"
     inkscape:showpageshadow="2"
     inkscape:pageopacity="0.0"
     inkscape:pagecheckerboard="0"
     inkscape:deskcolor="#d1d1d1"
     inkscape:document-units="mm"
     showgrid="false"
     inkscape:zoom="25.125021"
     inkscape:cx="12.656706"
     inkscape:cy="16.019887"
     inkscape:window-width="1920"
     inkscape:window-height="991"
     inkscape:window-x="-9"
     inkscape:window-y="-9"
     inkscape:window-maximized="1"
     inkscape:current-layer="layer1" /><defs
     id="defs2" /><g
     inkscape:label="Layer 1"
     inkscape:groupmode="layer"
     id="layer1"
     transform="translate(-73.214647,-126.76216)"><g
       id="news"
       transform="matrix(0.26458333,0,0,0.26458333,73.214648,126.76216)"><path
         clip-rule="evenodd"
         d="M 29,0 H 7 C 5.343,0 4,1.342 4,3 V 5 H 3 C 1.343,5 0,6.342 0,8 v 20 c 0,2.209 1.791,4 4,4 h 24 c 2.209,0 4,-1.791 4,-4 V 3 C 32,1.342 30.656,0 29,0 Z m 1,28 c 0,1.102 -0.898,2 -2,2 H 4 C 2.897,30 2,29.102 2,28 V 8 C 2,7.448 2.448,7 3,7 h 1 v 20 c 0,0.553 0.447,1 1,1 0.553,0 1,-0.447 1,-1 V 3 C 6,2.448 6.448,2 7,2 h 22 c 0.551,0 1,0.448 1,1 z"
         fill="#333333"
         fill-rule="evenodd"
         id="path2596"
         style="fill:#000000;fill-opacity:1" /><path
         clip-rule="evenodd"
         d="m 19.498,13.005 h 8 c 0.277,0 0.5,-0.224 0.5,-0.5 0,-0.276 -0.223,-0.5 -0.5,-0.5 h -8 c -0.275,0 -0.5,0.224 -0.5,0.5 0,0.276 0.225,0.5 0.5,0.5 z"
         fill="#333333"
         fill-rule="evenodd"
         id="path2598"
         style="fill:#000000;fill-opacity:1" /><path
         clip-rule="evenodd"
         d="m 19.498,10.005 h 8 c 0.277,0 0.5,-0.224 0.5,-0.5 0,-0.276 -0.223,-0.5 -0.5,-0.5 h -8 c -0.275,0 -0.5,0.224 -0.5,0.5 0,0.276 0.225,0.5 0.5,0.5 z"
         fill="#333333"
         fill-rule="evenodd"
         id="path2600"
         style="fill:#08a599;fill-opacity:1" /><path
         clip-rule="evenodd"
         d="m 19.498,7.005 h 8 c 0.277,0 0.5,-0.224 0.5,-0.5 0,-0.276 -0.223,-0.5 -0.5,-0.5 h -8 c -0.275,0 -0.5,0.224 -0.5,0.5 0,0.276 0.225,0.5 0.5,0.5 z"
         fill="#333333"
         fill-rule="evenodd"
         id="path2602"
         style="fill:#000000;fill-opacity:1" /><path
         clip-rule="evenodd"
         d="m 16.5,27.004 h -8 c -0.276,0 -0.5,0.225 -0.5,0.5 0,0.277 0.224,0.5 0.5,0.5 h 8 c 0.275,0 0.5,-0.223 0.5,-0.5 0,-0.275 -0.224,-0.5 -0.5,-0.5 z"
         fill="#333333"
         fill-rule="evenodd"
         id="path2604"
         style="fill:#000000;fill-opacity:1" /><path
         clip-rule="evenodd"
         d="m 16.5,24.004 h -8 c -0.276,0 -0.5,0.225 -0.5,0.5 0,0.277 0.224,0.5 0.5,0.5 h 8 c 0.275,0 0.5,-0.223 0.5,-0.5 0,-0.275 -0.224,-0.5 -0.5,-0.5 z"
         fill="#333333"
         fill-rule="evenodd"
         id="path2606"
         style="fill:#08a599;fill-opacity:1" /><path
         clip-rule="evenodd"
         d="m 16.5,21.004 h -8 c -0.276,0 -0.5,0.225 -0.5,0.5 0,0.277 0.224,0.5 0.5,0.5 h 8 c 0.275,0 0.5,-0.223 0.5,-0.5 0,-0.275 -0.224,-0.5 -0.5,-0.5 z"
         fill="#333333"
         fill-rule="evenodd"
         id="path2608"
         style="fill:#000000;fill-opacity:1" /><path
         clip-rule="evenodd"
         d="m 27.5,27.004 h -8 c -0.277,0 -0.5,0.225 -0.5,0.5 0,0.277 0.223,0.5 0.5,0.5 h 8 c 0.275,0 0.5,-0.223 0.5,-0.5 0,-0.275 -0.225,-0.5 -0.5,-0.5 z"
         fill="#333333"
         fill-rule="evenodd"
         id="path2610"
         style="fill:#030303;fill-opacity:1" /><path
         clip-rule="evenodd"
         d="m 27.5,24.004 h -8 c -0.277,0 -0.5,0.225 -0.5,0.5 0,0.277 0.223,0.5 0.5,0.5 h 8 c 0.275,0 0.5,-0.223 0.5,-0.5 0,-0.275 -0.225,-0.5 -0.5,-0.5 z"
         fill="#333333"
         fill-rule="evenodd"
         id="path2612"
         style="fill:#08a599;fill-opacity:1" /><path
         clip-rule="evenodd"
         d="m 27.5,21.004 h -8 c -0.277,0 -0.5,0.225 -0.5,0.5 0,0.277 0.223,0.5 0.5,0.5 h 8 c 0.275,0 0.5,-0.223 0.5,-0.5 0,-0.275 -0.225,-0.5 -0.5,-0.5 z"
         fill="#333333"
         fill-rule="evenodd"
         id="path2614"
         style="fill:#000000;fill-opacity:1" /><path
         clip-rule="evenodd"
         d="m 27.5,15.004 h -19 c -0.276,0 -0.5,0.224 -0.5,0.5 0,0.276 0.224,0.5 0.5,0.5 h 19 c 0.275,0 0.5,-0.224 0.5,-0.5 0,-0.276 -0.225,-0.5 -0.5,-0.5 z"
         fill="#333333"
         fill-rule="evenodd"
         id="path2616"
         style="fill:#000000;fill-opacity:1" /><path
         clip-rule="evenodd"
         d="m 27.5,18.004 h -19 c -0.276,0 -0.5,0.225 -0.5,0.5 0,0.277 0.224,0.5 0.5,0.5 h 19 c 0.275,0 0.5,-0.223 0.5,-0.5 0,-0.275 -0.225,-0.5 -0.5,-0.5 z"
         fill="#333333"
         fill-rule="evenodd"
         id="path2618"
         style="fill:#08a599;fill-opacity:1" /><path
         clip-rule="evenodd"
         d="m 9,13 h 7 c 0.553,0 1,-0.447 1,-1 V 5.004 c 0,-0.553 -0.447,-1 -1,-1 H 9 c -0.553,0 -1,0.447 -1,1 V 12 c 0,0.552 0.447,1 1,1 z m 1,-7 h 5 v 5 h -5 z"
         fill="#333333"
         fill-rule="evenodd"
         id="path2620"
         style="fill:#08a599;fill-opacity:1" /></g></g></svg>
