<?xml version="1.0" encoding="UTF-8" standalone="no"?>
<!-- Created with Inkscape (http://www.inkscape.org/) -->

<svg
   width="12.697838mm"
   height="12.476425mm"
   viewBox="0 0 12.697838 12.476425"
   version="1.1"
   id="svg5"
   xml:space="preserve"
   sodipodi:docname="privacy.svg"
   inkscape:version="1.2.2 (b0a8486541, 2022-12-01)"
   xmlns:inkscape="http://www.inkscape.org/namespaces/inkscape"
   xmlns:sodipodi="http://sodipodi.sourceforge.net/DTD/sodipodi-0.dtd"
   xmlns="http://www.w3.org/2000/svg"
   xmlns:svg="http://www.w3.org/2000/svg"><sodipodi:namedview
     id="namedview7"
     pagecolor="#ffffff"
     bordercolor="#000000"
     borderopacity="0.25"
     inkscape:showpageshadow="2"
     inkscape:pageopacity="0.0"
     inkscape:pagecheckerboard="0"
     inkscape:deskcolor="#d1d1d1"
     inkscape:document-units="mm"
     showgrid="false"
     inkscape:zoom="8.5250782"
     inkscape:cx="-11.495496"
     inkscape:cy="28.914691"
     inkscape:window-width="1920"
     inkscape:window-height="991"
     inkscape:window-x="-9"
     inkscape:window-y="-9"
     inkscape:window-maximized="1"
     inkscape:current-layer="layer1" /><defs
     id="defs2" /><g
     inkscape:label="Layer 1"
     inkscape:groupmode="layer"
     id="layer1"
     transform="translate(-115.63491,-198.80958)"><g
       id="g2525"
       transform="matrix(0.26458333,0,0,0.26458333,115.10467,198.16861)"><g
         id="g2519"
         style="fill:#000000"><path
           d="m 24.856588,2.4333801 c -1.836303,1.0465088 -8.97589,4.7971802 -16.994445,4.7971802 -1.6099854,0 -3.1699829,-0.1500244 -4.6500244,-0.4500122 L 2.072165,6.5605164 2.0121064,7.7205505 C 2.0022187,7.9985046 1.0100312,36.010407 24.856589,49.576813 V 2.4333801 Z"
           id="path2517"
           style="fill:#000000" /></g><g
         id="g2523"
         style="fill:#ff0000"><path
           d="M 49.992149,7.7305603 49.95211,6.5505676 48.802147,6.7805481 c -1.48999,0.2999878 -3.049988,0.4500122 -4.669983,0.4500122 -8.082275,0 -15.39728,-3.7612305 -17.275576,-4.8080444 V 49.577484 C 50.698753,36.011505 50.002098,8.0085144 49.992149,7.7305603 Z"
           fill="#f93e2b"
           id="path2521"
           style="fill:#08a599;fill-opacity:1" /></g></g></g></svg>
