<?xml version="1.0" encoding="UTF-8" standalone="no"?>
<!-- Created with Inkscape (http://www.inkscape.org/) -->

<svg
   width="119.0625mm"
   height="121.68418mm"
   viewBox="0 0 119.0625 121.68418"
   version="1.1"
   id="svg5"
   xml:space="preserve"
   inkscape:export-filename="news.svg"
   inkscape:export-xdpi="96"
   inkscape:export-ydpi="96"
   sodipodi:docname="tools.svg"
   inkscape:version="1.2.2 (b0a8486541, 2022-12-01)"
   xmlns:inkscape="http://www.inkscape.org/namespaces/inkscape"
   xmlns:sodipodi="http://sodipodi.sourceforge.net/DTD/sodipodi-0.dtd"
   xmlns="http://www.w3.org/2000/svg"
   xmlns:svg="http://www.w3.org/2000/svg"><sodipodi:namedview
     id="namedview7"
     pagecolor="#ffffff"
     bordercolor="#000000"
     borderopacity="0.25"
     inkscape:showpageshadow="2"
     inkscape:pageopacity="0.0"
     inkscape:pagecheckerboard="0"
     inkscape:deskcolor="#d1d1d1"
     inkscape:document-units="mm"
     showgrid="false"
     inkscape:zoom="1.748173"
     inkscape:cx="176.75596"
     inkscape:cy="230.24037"
     inkscape:window-width="1920"
     inkscape:window-height="991"
     inkscape:window-x="-9"
     inkscape:window-y="-9"
     inkscape:window-maximized="1"
     inkscape:current-layer="layer1" /><defs
     id="defs2" /><g
     inkscape:label="Layer 1"
     inkscape:groupmode="layer"
     id="layer1"
     transform="translate(-16.935168,-107.97509)"><g
       id="Cyber_phishing_password"
       transform="matrix(0.26458333,0,0,0.26458333,8.7330854,101.08789)"><path
         d="m 458.5356,251.939 h -129.125 c -0.3911,0.8545 -0.7646,1.7544 -1.1733,2.5849 -0.2812,0.6944 -0.668,1.5381 -1.0986,2.3555 -0.1934,0.3691 -0.4131,0.7471 -0.6416,1.125 A 80.4493,80.4493 0 0 1 182.5322,251.939 H 53.4849 A 22.4845,22.4845 0 0 0 31,274.4233 V 463.436 a 22.503,22.503 0 0 0 22.5029,22.503 H 458.4971 A 22.5031,22.5031 0 0 0 481,463.4355 V 274.4033 A 22.4643,22.4643 0 0 0 458.5356,251.939 Z M 166.0879,378.3882 a 9.8662,9.8662 0 0 1 -4.9483,18.45 10.2488,10.2488 0 0 1 -4.9482,-1.3491 l -16.2949,-9.36 v 18.81 a 9.8987,9.8987 0 1 1 -19.7974,0 v -18.81 l -16.2905,9.36 a 10.2617,10.2617 0 0 1 -4.9482,1.3491 9.8675,9.8675 0 0 1 -4.9527,-18.45 l 16.29,-9.4492 -16.29,-9.45 a 9.8805,9.8805 0 1 1 9.9009,-17.1011 l 16.2905,9.45 V 332.939 a 9.8987,9.8987 0 1 1 19.7974,0 v 18.8994 l 16.2949,-9.45 a 10.054,10.054 0 0 1 13.5879,3.6011 9.8762,9.8762 0 0 1 -3.6914,13.5 l -16.29,9.45 z m 126,0 a 9.8662,9.8662 0 0 1 -4.9483,18.45 10.2488,10.2488 0 0 1 -4.9482,-1.3491 l -16.2949,-9.36 v 18.81 a 9.8987,9.8987 0 1 1 -19.7974,0 v -18.81 l -16.29,9.36 a 10.2617,10.2617 0 0 1 -4.9482,1.3491 9.8675,9.8675 0 0 1 -4.9527,-18.45 l 16.2905,-9.4492 -16.2905,-9.45 a 9.8805,9.8805 0 1 1 9.9009,-17.1011 l 16.29,9.45 V 332.939 a 9.8987,9.8987 0 1 1 19.7974,0 v 18.8994 l 16.2949,-9.45 a 10.054,10.054 0 0 1 13.5879,3.6011 9.8762,9.8762 0 0 1 -3.6914,13.5 l -16.2905,9.45 z m 126,0 a 9.8662,9.8662 0 0 1 -4.9483,18.45 10.2488,10.2488 0 0 1 -4.9482,-1.3491 l -16.2949,-9.36 v 18.81 a 9.8987,9.8987 0 1 1 -19.7974,0 v -18.81 l -16.2905,9.36 a 10.2617,10.2617 0 0 1 -4.9482,1.3491 9.8675,9.8675 0 0 1 -4.9527,-18.45 l 16.2905,-9.4492 -16.2905,-9.45 a 9.8805,9.8805 0 1 1 9.9009,-17.1011 l 16.2905,9.45 V 332.939 a 9.8987,9.8987 0 1 1 19.7974,0 v 18.8994 l 16.2949,-9.45 a 10.054,10.054 0 0 1 13.5879,3.6011 9.8762,9.8762 0 0 1 -3.6914,13.5 l -16.2905,9.45 z"
         id="path2702" /><path
         d="M 255.9956,279.854 A 60.7734,60.7734 0 0 0 309.49,247.83 c 0.044,-0.0781 0.11,-0.1343 0.1538,-0.2144 0.3164,-0.6 0.545,-1.2427 0.8438,-1.8525 0.6416,-1.3071 1.2568,-2.6245 1.8061,-3.9815 0.3165,-0.791 0.5933,-1.5908 0.879,-2.3925 q 0.7514,-2.1175 1.3491,-4.3 c 0.2021,-0.7447 0.4043,-1.4854 0.5757,-2.2368 0.3735,-1.61 0.6635,-3.2476 0.91,-4.9043 0.0923,-0.6314 0.2154,-1.2544 0.2857,-1.89 a 60.9719,60.9719 0 0 0 0.4262,-6.9189 v -77.1108 a 26.9039,26.9039 0 0 0 -0.3647,-50.25 9.3694,9.3694 0 0 0 0.3691,-1.82 v -54 a 9.8965,9.8965 0 1 0 -19.7929,0 v 54 a 9.362,9.362 0 0 0 0.3691,1.8194 26.9005,26.9005 0 0 0 -0.3735,50.249 V 219.14 a 40.7541,40.7541 0 0 1 -0.7427,7.3344 c -0.0923,0.503 -0.167,1.0064 -0.2769,1.5049 a 40.5625,40.5625 0 0 1 -2.061,6.6226 c -0.1626,0.4023 -0.3647,0.7866 -0.5405,1.1821 A 40.8767,40.8767 0 0 1 215.0739,219.14 v -10.17 a 9.8965,9.8965 0 1 0 -19.7929,0 v 10.169 a 60.7845,60.7845 0 0 0 60.7146,60.715 z"
         id="path2704"
         style="fill:#08a599;fill-opacity:1" /></g></g></svg>
