<?xml version="1.0" encoding="UTF-8" standalone="no"?>
<!-- Created with Inkscape (http://www.inkscape.org/) -->

<svg
   width="27.52243mm"
   height="19.560715mm"
   viewBox="0 0 27.52243 19.560715"
   version="1.1"
   id="svg5"
   xml:space="preserve"
   sodipodi:docname="tutorials.svg"
   inkscape:version="1.2.2 (b0a8486541, 2022-12-01)"
   xmlns:inkscape="http://www.inkscape.org/namespaces/inkscape"
   xmlns:sodipodi="http://sodipodi.sourceforge.net/DTD/sodipodi-0.dtd"
   xmlns="http://www.w3.org/2000/svg"
   xmlns:svg="http://www.w3.org/2000/svg"><sodipodi:namedview
     id="namedview7"
     pagecolor="#ffffff"
     bordercolor="#000000"
     borderopacity="0.25"
     inkscape:showpageshadow="2"
     inkscape:pageopacity="0.0"
     inkscape:pagecheckerboard="0"
     inkscape:deskcolor="#d1d1d1"
     inkscape:document-units="mm"
     showgrid="false"
     inkscape:zoom="10.875114"
     inkscape:cx="44.321375"
     inkscape:cy="37.011107"
     inkscape:window-width="1920"
     inkscape:window-height="991"
     inkscape:window-x="-9"
     inkscape:window-y="-9"
     inkscape:window-maximized="1"
     inkscape:current-layer="layer1" /><defs
     id="defs2" /><g
     inkscape:label="Layer 1"
     inkscape:groupmode="layer"
     id="layer1"
     transform="translate(-133.99997,-182.3092)"><g
       style="fill:none"
       id="g2062"
       transform="matrix(0.26458333,0,0,0.26458333,130.82783,175.15625)"><path
         d="m 18.3927,38.5947 c 0,-2.8477 2.3086,-5.1562 5.1563,-5.1562 h 87.306 c 2.847,0 5.156,2.3085 5.156,5.1562 V 95.809 c 0,2.8477 -2.309,5.156 -5.156,5.156 H 23.549 c -2.8477,0 -5.1563,-2.3083 -5.1563,-5.156 z"
         fill="#000000"
         id="path1987"
         style="fill:#08a599;fill-opacity:1" /><path
         d="m 13.7079,33.9098 c 0,-2.8477 2.3086,-5.1563 5.1563,-5.1563 H 106.17 c 2.848,0 5.156,2.3086 5.156,5.1563 V 91.124 c 0,2.8477 -2.308,5.1563 -5.156,5.1563 H 18.8642 c -2.8477,0 -5.1563,-2.3086 -5.1563,-5.1563 z"
         fill="#ffffff"
         id="path1989" /><path
         clip-rule="evenodd"
         d="M 18.8642,27.0348 H 106.17 c 3.797,0 6.875,3.078 6.875,6.875 V 91.124 c 0,3.797 -3.078,6.875 -6.875,6.875 H 18.8642 c -3.7969,0 -6.875,-3.078 -6.875,-6.875 V 33.9098 c 0,-3.797 3.078,-6.875 6.875,-6.875 z m 0,1.7187 c -2.8477,0 -5.1563,2.3086 -5.1563,5.1563 V 91.124 c 0,2.8477 2.3086,5.1563 5.1563,5.1563 H 106.17 c 2.848,0 5.156,-2.3086 5.156,-5.1563 V 33.9098 c 0,-2.8477 -2.308,-5.1563 -5.156,-5.1563 z"
         fill="#000000"
         fill-rule="evenodd"
         id="path1991" /><path
         d="m 19.7572,44.7614 c 0,-1.8985 1.5391,-3.4375 3.4375,-3.4375 h 39.9728 c 1.8985,0 3.4375,1.539 3.4375,3.4375 v 21.6931 c 0,1.8985 -1.539,3.4375 -3.4375,3.4375 H 23.1947 c -1.8984,0 -3.4375,-1.539 -3.4375,-3.4375 z"
         fill="#000000"
         id="path1993" /><path
         clip-rule="evenodd"
         d="m 19.0896,74.1437 c -0.0043,-0.9493 0.7618,-1.7222 1.711,-1.7265 l 44.2126,-0.199 c 0.9492,-0.0043 1.7222,0.7617 1.7265,1.711 0.0042,0.9492 -0.7618,1.7222 -1.711,1.7264 l -44.2126,0.1991 c -0.9493,0.0042 -1.7222,-0.7618 -1.7265,-1.711 z"
         fill="#000000"
         fill-rule="evenodd"
         id="path1995"
         style="fill:#08a599;fill-opacity:1" /><path
         clip-rule="evenodd"
         d="m 19.3633,79.0865 c 0,-0.4746 0.3848,-0.8593 0.8594,-0.8593 h 33.9647 c 0.4746,0 0.8594,0.3847 0.8594,0.8593 0,0.4747 -0.3848,0.8594 -0.8594,0.8594 H 20.2227 c -0.4746,0 -0.8594,-0.3847 -0.8594,-0.8594 z"
         fill="#000000"
         fill-rule="evenodd"
         id="path1997" /><path
         clip-rule="evenodd"
         d="m 19.3633,87.6318 c 0,-0.4746 0.3848,-0.8593 0.8594,-0.8593 h 33.9647 c 0.4746,0 0.8594,0.3847 0.8594,0.8593 0,0.4747 -0.3848,0.8594 -0.8594,0.8594 H 20.2227 c -0.4746,0 -0.8594,-0.3847 -0.8594,-0.8594 z"
         fill="#000000"
         fill-rule="evenodd"
         id="path1999" /><path
         clip-rule="evenodd"
         d="m 19.3633,82.2883 c 0,-0.4746 0.3848,-0.8593 0.8594,-0.8593 h 17.4216 c 0.4746,0 0.8593,0.3847 0.8593,0.8593 0,0.4747 -0.3847,0.8594 -0.8593,0.8594 H 20.2227 c -0.4746,0 -0.8594,-0.3847 -0.8594,-0.8594 z"
         fill="#000000"
         fill-rule="evenodd"
         id="path2001"
         style="fill:#08a599;fill-opacity:1" /><path
         clip-rule="evenodd"
         d="m 19.3633,90.2671 c 0,-0.4746 0.3848,-0.8594 0.8594,-0.8594 h 12.7368 c 0.4746,0 0.8593,0.3848 0.8593,0.8594 0,0.4746 -0.3847,0.8594 -0.8593,0.8594 H 20.2227 c -0.4746,0 -0.8594,-0.3848 -0.8594,-0.8594 z"
         fill="#000000"
         fill-rule="evenodd"
         id="path2003"
         style="fill:#08a599;fill-opacity:1" /><path
         clip-rule="evenodd"
         d="m 92.4163,42.9338 c 0,-0.4746 0.3847,-0.8593 0.8594,-0.8593 h 14.1273 c 0.475,0 0.86,0.3847 0.86,0.8593 0,0.4747 -0.385,0.8594 -0.86,0.8594 H 93.2757 c -0.4747,0 -0.8594,-0.3847 -0.8594,-0.8594 z"
         fill="#000000"
         fill-rule="evenodd"
         id="path2005" /><path
         clip-rule="evenodd"
         d="m 92.4169,46.4395 c 0,-0.4747 0.3847,-0.8594 0.8593,-0.8594 h 7.7118 c 0.475,0 0.859,0.3847 0.859,0.8594 0,0.4746 -0.384,0.8593 -0.859,0.8593 h -7.7118 c -0.4746,0 -0.8593,-0.3847 -0.8593,-0.8593 z"
         fill="#000000"
         fill-rule="evenodd"
         id="path2007"
         style="fill:#08a599;fill-opacity:1" /><path
         clip-rule="evenodd"
         d="m 92.4163,77.7509 c 0,-0.4747 0.3847,-0.8594 0.8594,-0.8594 h 14.1273 c 0.475,0 0.86,0.3847 0.86,0.8594 0,0.4746 -0.385,0.8593 -0.86,0.8593 H 93.2757 c -0.4747,0 -0.8594,-0.3847 -0.8594,-0.8593 z"
         fill="#000000"
         fill-rule="evenodd"
         id="path2009" /><path
         clip-rule="evenodd"
         d="m 92.4169,81.2565 c 0,-0.4746 0.3847,-0.8594 0.8593,-0.8594 h 7.7118 c 0.475,0 0.859,0.3848 0.859,0.8594 0,0.4746 -0.384,0.8593 -0.859,0.8593 h -7.7118 c -0.4746,0 -0.8593,-0.3847 -0.8593,-0.8593 z"
         fill="#000000"
         fill-rule="evenodd"
         id="path2011"
         style="fill:#08a599;fill-opacity:1" /><path
         clip-rule="evenodd"
         d="m 92.4163,59.0114 c 0,-0.4747 0.3847,-0.8594 0.8594,-0.8594 h 14.1273 c 0.475,0 0.86,0.3847 0.86,0.8594 0,0.4746 -0.385,0.8593 -0.86,0.8593 H 93.2757 c -0.4747,0 -0.8594,-0.3847 -0.8594,-0.8593 z"
         fill="#000000"
         fill-rule="evenodd"
         id="path2013" /><path
         clip-rule="evenodd"
         d="m 92.4169,62.517 c 0,-0.4747 0.3847,-0.8594 0.8593,-0.8594 h 7.7118 c 0.475,0 0.859,0.3847 0.859,0.8594 0,0.4746 -0.384,0.8593 -0.859,0.8593 h -7.7118 c -0.4746,0 -0.8593,-0.3847 -0.8593,-0.8593 z"
         fill="#000000"
         fill-rule="evenodd"
         id="path2015"
         style="fill:#08a599;fill-opacity:1" /><path
         clip-rule="evenodd"
         d="m 73.7406,40.3369 h 13.9371 c 1.8985,0 3.4375,1.539 3.4375,3.4375 v 9.0232 c 0,1.8985 -1.539,3.4375 -3.4375,3.4375 H 73.7406 c -1.8985,0 -3.4375,-1.539 -3.4375,-3.4375 v -9.0232 c 0,-1.8985 1.539,-3.4375 3.4375,-3.4375 z m 0,1.7188 c -0.9493,0 -1.7188,0.7695 -1.7188,1.7187 v 9.0232 c 0,0.9492 0.7695,1.7187 1.7188,1.7187 h 13.9371 c 0.9492,0 1.7188,-0.7695 1.7188,-1.7187 v -9.0232 c 0,-0.9492 -0.7695,-1.7187 -1.7188,-1.7187 z"
         fill="#000000"
         fill-rule="evenodd"
         id="path2017" /><path
         d="m 47.3785,54.2581 -4.1147,-2.9393 c -1.1376,-0.8126 -2.7178,6e-4 -2.7178,1.3986 v 5.8195 c 0,1.3906 1.5652,2.2055 2.7044,1.4081 l 4.1146,-2.8803 c 0.9718,-0.6803 0.9787,-2.1171 0.0135,-2.8066 z"
         fill="#ffffff"
         id="path2019"
         style="fill:#08a599;fill-opacity:1" /><path
         clip-rule="evenodd"
         d="m 20.719,32.5779 h 83.82 c 1.48,0 2.68,1.2001 2.68,2.6805 0,1.4804 -1.2,2.6805 -2.68,2.6805 h -83.82 c -1.4804,0 -2.6805,-1.2001 -2.6805,-2.6805 0,-1.4804 1.2001,-2.6805 2.6805,-2.6805 z m 0,1.7187 c -0.5312,0 -0.9618,0.4306 -0.9618,0.9618 0,0.5311 0.4306,0.9617 0.9618,0.9617 h 83.82 c 0.531,0 0.961,-0.4306 0.961,-0.9617 0,-0.5312 -0.43,-0.9618 -0.961,-0.9618 z"
         fill="#000000"
         fill-rule="evenodd"
         id="path2021"
         style="fill:#08a599;fill-opacity:1" /><path
         clip-rule="evenodd"
         d="m 73.7406,57.0763 h 13.9371 c 1.8985,0 3.4375,1.539 3.4375,3.4375 v 9.0232 c 0,1.8985 -1.539,3.4375 -3.4375,3.4375 H 73.7406 c -1.8985,0 -3.4375,-1.5391 -3.4375,-3.4375 v -9.0232 c 0,-1.8985 1.539,-3.4375 3.4375,-3.4375 z m 0,1.7187 c -0.9493,0 -1.7188,0.7696 -1.7188,1.7188 v 9.0232 c 0,0.9492 0.7695,1.7187 1.7188,1.7187 h 13.9371 c 0.9492,0 1.7188,-0.7695 1.7188,-1.7187 v -9.0232 c 0,-0.9492 -0.7695,-1.7188 -1.7188,-1.7188 z"
         fill="#000000"
         fill-rule="evenodd"
         id="path2023" /><path
         clip-rule="evenodd"
         d="m 73.7406,74.891 h 13.9371 c 1.8985,0 3.4375,1.539 3.4375,3.4375 v 9.0232 c 0,1.8985 -1.539,3.4375 -3.4375,3.4375 H 73.7406 c -1.8985,0 -3.4375,-1.5391 -3.4375,-3.4375 v -9.0232 c 0,-1.8985 1.539,-3.4375 3.4375,-3.4375 z m 0,1.7187 c -0.9493,0 -1.7188,0.7696 -1.7188,1.7188 v 9.0232 c 0,0.9492 0.7695,1.7187 1.7188,1.7187 h 13.9371 c 0.9492,0 1.7188,-0.7695 1.7188,-1.7187 v -9.0232 c 0,-0.9492 -0.7695,-1.7188 -1.7188,-1.7188 z"
         fill="#000000"
         fill-rule="evenodd"
         id="path2025" /><path
         clip-rule="evenodd"
         d="m 79.9709,48.9737 c 0,0.3476 0.3913,0.5513 0.6761,0.352 l 1.2014,-0.841 c 0.243,-0.1701 0.2447,-0.5293 0.0034,-0.7017 l -1.2015,-0.8582 c -0.2844,-0.2032 -0.6794,1e-4 -0.6794,0.3496 z m 1.6785,-3.4475 1.2014,0.8582 c 1.2066,0.8619 1.198,2.658 -0.0167,3.5083 l -1.2015,0.841 c -1.4239,0.9968 -3.3805,-0.0219 -3.3805,-1.76 v -1.6993 c 0,-1.7475 1.9753,-2.764 3.3973,-1.7482 z"
         fill="#000000"
         fill-rule="evenodd"
         id="path2027"
         style="fill:#08a599;fill-opacity:1" /><path
         clip-rule="evenodd"
         d="m 79.9709,66.3766 c 0,0.3477 0.3913,0.5514 0.6761,0.352 l 1.2014,-0.841 c 0.243,-0.17 0.2447,-0.5293 0.0034,-0.7016 l -1.2015,-0.8583 c -0.2844,-0.2031 -0.6794,2e-4 -0.6794,0.3497 z m 1.6785,-3.4474 1.2014,0.8582 c 1.2066,0.8619 1.198,2.658 -0.0167,3.5083 l -1.2015,0.841 c -1.4239,0.9968 -3.3805,-0.0219 -3.3805,-1.7601 v -1.6992 c 0,-1.7475 1.9753,-2.764 3.3973,-1.7482 z"
         fill="#000000"
         fill-rule="evenodd"
         id="path2029"
         style="fill:#08a599;fill-opacity:1" /><path
         clip-rule="evenodd"
         d="m 79.9709,83.9632 c 0,0.3476 0.3913,0.5513 0.6761,0.352 l 1.2014,-0.841 c 0.243,-0.1701 0.2447,-0.5293 0.0034,-0.7017 l -1.2015,-0.8582 c -0.2844,-0.2032 -0.6794,1e-4 -0.6794,0.3496 z m 1.6785,-3.4475 1.2014,0.8582 c 1.2066,0.8619 1.198,2.658 -0.0167,3.5083 l -1.2015,0.841 c -1.4239,0.9968 -3.3805,-0.0219 -3.3805,-1.76 v -1.6993 c 0,-1.7475 1.9753,-2.764 3.3973,-1.7482 z"
         fill="#000000"
         fill-rule="evenodd"
         id="path2031"
         style="fill:#08a599;fill-opacity:1" /></g></g></svg>
